<?xml version="1.0" encoding="iso-8859-1"?>
<!-- Generator: Adobe Illustrator 19.0.0, SVG Export Plug-In . SVG Version: 6.00 Build 0)  -->
<svg version="1.1" id="Layer_1" xmlns="http://www.w3.org/2000/svg" xmlns:xlink="http://www.w3.org/1999/xlink" x="0px" y="0px"
	 viewBox="0 0 512 512" style="enable-background:new 0 0 512 512;" xml:space="preserve">
<path style="fill:#CEE8FA;" d="M204.846,14.289c30.539,0,44.241,17.117,49.632,27.171c0.677,1.263,2.515,1.262,3.189-0.003
	c5.373-10.054,19-27.168,49.536-27.168c34.786,0,65.386,23.746,65.386,67.109c0,17.547-3.577,32.579-13.5,49.355
	c-20.225,34.187-86.853,78.506-100.539,87.24c-1.513,0.966-3.429,0.967-4.945,0.006c-13.698-8.692-80.337-52.791-100.72-87.247
	c-9.925-16.777-13.476-31.808-13.476-49.355C139.41,38.035,170.061,14.289,204.846,14.289z"/>
<g>
	<path style="fill:#2D527C;" d="M256.073,233.007c-3.585,0-7.083-1.016-10.117-2.939c-8.351-5.3-82.196-52.871-105.367-92.039
		c-10.697-18.079-15.467-35.544-15.467-56.631c0-24.446,8.349-45.262,24.144-60.199C163.725,7.529,183.464,0,204.846,0
		c25.242,0,41.396,9.978,51.212,19.891C265.858,9.978,281.988,0,307.204,0c21.382,0,41.113,7.532,55.561,21.205
		c15.775,14.932,24.114,35.747,24.114,60.193c0,21.055-4.778,38.521-15.491,56.631c-23.014,38.904-96.812,86.69-105.151,92.009
		C263.195,231.981,259.679,233.007,256.073,233.007z M204.846,28.578c-25.458,0-51.147,16.333-51.147,52.82
		c0,16.101,3.327,28.293,11.484,42.079c15.094,25.512,63.327,61.063,90.875,79.101c27.544-18.122,75.746-53.766,90.733-79.101
		c8.175-13.818,11.509-26.008,11.509-42.079c0-36.487-25.663-52.82-51.097-52.82c-21.865,0-32.152,10.665-36.933,19.613
		c-2.806,5.248-8.246,8.503-14.201,8.503c-5.944,0-11.38-3.248-14.186-8.479C237.083,39.255,226.759,28.578,204.846,28.578z"/>
	<path style="fill:#2D527C;" d="M418.185,512H93.815c-19.275,0-34.956-15.681-34.956-34.956V270.408
		c0-19.275,15.681-34.956,34.956-34.956h97.294c7.891,0,14.289,6.399,14.289,14.289v45.227h115.494
		c7.89,0,14.289,6.399,14.289,14.289c0,7.891-6.399,14.289-14.289,14.289H191.109c-7.89,0-14.289-6.399-14.289-14.289v-45.227
		H93.815c-3.517,0-6.377,2.861-6.377,6.377v206.636c0,3.517,2.861,6.377,6.377,6.377h324.37c3.517,0,6.377-2.861,6.377-6.377
		V270.408c0-3.517-2.861-6.377-6.377-6.377h-97.294c-7.891,0-14.289-6.399-14.289-14.289c0-7.89,6.399-14.289,14.289-14.289h97.294
		c19.275,0,34.956,15.681,34.956,34.956v206.636C453.141,496.319,437.46,512,418.185,512z"/>
	<path style="fill:#2D527C;" d="M175.173,403.252h-22.966v31.275c0,3.694-4.501,5.54-9.002,5.54s-9.002-1.846-9.002-5.54v-73.398
		c0-3.808,4.5-5.424,9.002-5.424c4.5,0,9.002,1.616,9.002,5.424v28.274h22.966v-28.274c0-3.808,4.5-5.424,9.001-5.424
		s9.002,1.616,9.002,5.424v73.398c0,3.694-4.5,5.54-9.002,5.54c-4.5,0-9.001-1.846-9.001-5.54V403.252z"/>
	<path style="fill:#2D527C;" d="M223.636,390.902h17.31c3.462,0,5.424,3.348,5.424,7.04c0,3.116-1.616,6.81-5.424,6.81h-17.31
		v19.618h30.929c3.462,0,5.424,3.694,5.424,7.963c0,3.692-1.616,7.732-5.424,7.732h-41.084c-3.924,0-7.848-1.846-7.848-5.54v-73.281
		c0-3.694,3.924-5.54,7.848-5.54h41.084c3.808,0,5.424,4.04,5.424,7.732c0,4.27-1.962,7.963-5.424,7.963h-30.929V390.902z"/>
	<path style="fill:#2D527C;" d="M275.678,440.067c-3.924,0-7.848-1.846-7.848-5.54v-73.398c0-3.808,4.5-5.424,9.002-5.424
		c4.5,0,9.002,1.616,9.002,5.424v63.243h26.312c3.462,0,5.194,3.924,5.194,7.848c0,3.924-1.732,7.848-5.194,7.848H275.678z"/>
	<path style="fill:#2D527C;" d="M324.602,361.129c0-2.886,2.653-5.424,6.694-5.424h23.889c15.234,0,27.237,7.156,27.237,26.544
		v0.576c0,19.388-12.464,26.774-28.39,26.774h-11.424v24.927c0,3.694-4.501,5.54-9.002,5.54c-4.501,0-9.002-1.846-9.002-5.54
		v-73.396H324.602z M342.607,371.4v24.35h11.424c6.463,0,10.388-3.694,10.388-11.54v-1.27c0-7.848-3.924-11.54-10.388-11.54
		L342.607,371.4L342.607,371.4z"/>
</g>
<g>
</g>
<g>
</g>
<g>
</g>
<g>
</g>
<g>
</g>
<g>
</g>
<g>
</g>
<g>
</g>
<g>
</g>
<g>
</g>
<g>
</g>
<g>
</g>
<g>
</g>
<g>
</g>
<g>
</g>
</svg>
